<svg xmlns="http://www.w3.org/2000/svg" viewBox="0 0 363.188 363.188"><g fill="#ffffff"><path d="M111.667 132.311C50.093 132.311 0 182.404 0 243.977s50.093 111.667 111.667 111.667 111.667-50.094 111.667-111.667-50.094-111.666-111.667-111.666zm0 208.333C58.364 340.644 15 297.28 15 243.977c0-53.302 43.364-96.666 96.667-96.666s96.667 43.364 96.667 96.666c-.001 53.303-43.365 96.667-96.667 96.667z"/><path d="M111.667 173.977c-4.142 0-7.5 3.357-7.5 7.5s3.358 7.5 7.5 7.5c30.327 0 55 24.673 55 55 0 4.143 3.358 7.5 7.5 7.5s7.5-3.357 7.5-7.5c0-38.598-31.402-70-70-70zM298.333 69.835c-35.761 0-64.855 29.094-64.855 64.855s29.094 64.854 64.855 64.854 64.855-29.094 64.855-64.854c0-35.761-29.093-64.855-64.855-64.855zm0 114.71c-27.49 0-49.855-22.364-49.855-49.854s22.365-49.855 49.855-49.855 49.855 22.365 49.855 49.855-22.364 49.854-49.855 49.854z"/><path d="M302.012 157.925c-14.84 0-26.913-12.073-26.913-26.913 0-4.143-3.358-7.5-7.5-7.5s-7.5 3.357-7.5 7.5c0 23.111 18.802 41.913 41.913 41.913 4.142 0 7.5-3.357 7.5-7.5s-3.358-7.5-7.5-7.5zM123.358 96.568c24.544 0 44.512-19.968 44.512-44.512S147.902 7.544 123.358 7.544 78.846 27.512 78.846 52.056s19.968 44.512 44.512 44.512zm0-74.024c16.273 0 29.512 13.239 29.512 29.512s-13.239 29.512-29.512 29.512-29.512-13.239-29.512-29.512 13.239-29.512 29.512-29.512z"/></g></svg>